<svg width="83" height="60" viewBox="0 0 83 60" fill="none" xmlns="http://www.w3.org/2000/svg">
<path d="M13.4016 14.5297C-4.93977 25.0732 -6.03691 60.6716 20.0513 59.9904C31.7168 59.6849 35.1251 47.6356 45.6529 43.4069C55.5368 39.4343 64.0587 47.4006 74.0356 38.3795C85.7917 27.7608 87.4804 1.78965 70.0071 0.0535396C62.3987 -0.702924 59.465 6.77948 52.8177 8.43572C39.3419 11.7952 27.0301 6.69961 13.4016 14.5297Z" fill="#EAF7F2"/>
<g clip-path="url(#clip0)">
<path d="M35.8979 7.00391C27.5546 7.00391 20.7534 13.805 20.7534 22.1484V30.409C20.7534 31.1799 21.3591 31.7858 22.1302 31.7858H27.6373C28.4084 31.7858 29.014 31.1799 29.014 30.409V22.1484C29.014 18.3484 32.098 15.2645 35.8979 15.2645C39.6977 15.2645 42.7817 18.3485 42.7817 22.1484V24.9019C42.7817 25.6728 43.3874 26.2787 44.1585 26.2787H49.6656C50.4367 26.2787 51.0423 25.6728 51.0423 24.9019V22.1484C51.0423 13.805 44.2412 7.00391 35.8979 7.00391Z" fill="#BDC3C7"/>
<path d="M51.0424 22.1484V24.9019C51.0424 25.6728 50.4367 26.2787 49.6656 26.2787H44.1586C43.3875 26.2787 42.7818 25.6728 42.7818 24.9019V22.1484C42.7818 18.3484 39.6978 15.2645 35.8979 15.2645V7.00391C44.2413 7.00391 51.0424 13.805 51.0424 22.1484Z" fill="#7F8C8D"/>
<path d="M46.9122 29.0312H24.8838C24.1128 29.0312 23.5071 29.6369 23.5071 30.408V52.6199C23.5071 53.3908 24.1128 53.9967 24.8838 53.9967H46.9122C47.6833 53.9967 48.2889 53.3908 48.2889 52.6199V30.408C48.2889 29.6369 47.6833 29.0312 46.9122 29.0312Z" fill="#2FAD80"/>
<path d="M57.4943 20.9157L63.0014 18.1622C64.6412 17.3521 65.8489 19.8174 64.233 20.6253L58.7259 23.3788C57.0713 24.1949 55.8922 21.7168 57.4943 20.9157Z" fill="#BDC3C7"/>
<path d="M63.0014 37.1475L57.4943 34.3939C56.814 34.0537 56.5397 33.2269 56.8785 32.5466C57.2227 31.8677 58.0456 31.5947 58.7259 31.9308L64.2329 34.6844C65.8662 35.501 64.6243 37.9479 63.0014 37.1475Z" fill="#BDC3C7"/>
<path d="M63.6171 29.0309H58.11C56.2952 29.0309 56.2877 26.2773 58.11 26.2773H63.6171C65.4319 26.2773 65.4393 29.0309 63.6171 29.0309Z" fill="#BDC3C7"/>
<path d="M48.2889 30.408V52.6199C48.2889 53.3908 47.6832 53.9967 46.9121 53.9967H35.8979V29.0312H46.9121C47.6832 29.0312 48.2889 29.6369 48.2889 30.408Z" fill="#2FAD80"/>
<path d="M26.2606 53.9967H22.1303C19.8527 53.9967 18 52.144 18 49.8664V33.1616C18 30.884 19.8527 29.0312 22.1303 29.0312H26.2606V53.9967Z" fill="#2E9670"/>
<path d="M53.796 49.8664C53.796 52.144 51.9433 53.9967 49.6657 53.9967H45.5354V29.0312H49.6657C51.9433 29.0312 53.796 30.884 53.796 33.1616V49.8664Z" fill="#2E9670"/>
<path d="M35.8981 34.5381C33.6125 34.5381 31.7678 36.3828 31.7678 38.6684C31.7678 40.9538 33.6125 42.7987 35.8981 42.7987C38.1838 42.7987 40.0284 40.9538 40.0284 38.6684C40.0284 36.3828 38.1838 34.5381 35.8981 34.5381Z" fill="#BDC3C7"/>
<path d="M37.2748 41.4217V46.9288C37.2748 47.8374 36.5864 48.3055 35.898 48.3055C35.2096 48.3055 34.5212 47.8374 34.5212 46.9288V41.4217C34.5212 40.5129 35.2096 40.0449 35.898 40.0449C36.5864 40.0449 37.2748 40.513 37.2748 41.4217Z" fill="#BDC3C7"/>
<path d="M40.0283 38.6684C40.0283 40.9538 38.1836 42.7987 35.8979 42.7987V34.5381C38.1836 34.5381 40.0283 36.3828 40.0283 38.6684Z" fill="#BDC3C7"/>
<path d="M37.2747 41.4217V46.9288C37.2747 47.8374 36.5863 48.3055 35.8979 48.3055V40.0449C36.5863 40.0449 37.2747 40.513 37.2747 41.4217Z" fill="#BDC3C7"/>
</g>
<defs>
<clipPath id="clip0">
<rect width="47" height="47" fill="white" transform="translate(18 7)"/>
</clipPath>
</defs>
</svg>
