<svg width="83" height="60" viewBox="0 0 83 60" fill="none" xmlns="http://www.w3.org/2000/svg">
<path opacity="0.9" d="M79.7554 15.6729C91.6241 32.5405 68.2371 47.564 52.9806 48.1279C46.9201 48.3513 44.1889 47.1067 38.8012 50.0784C34.8878 52.2482 33.6986 57.0409 29.2431 58.8286C19.4771 62.7526 6.82102 56.1576 2.67163 48.8296C-1.63429 41.2259 -0.975437 32.4695 6.40982 28.1549C11.8162 24.9953 18.4001 26.6931 21.5448 24.7781C28.0142 20.8353 26.7642 16.5938 29.937 11.2915C41.5768 -8.1823 68.9544 0.350683 79.7554 15.6729Z" fill="#EAF7F2"/>
<g clip-path="url(#clip0)">
<path d="M57.6562 26.002C60.4446 26.002 62.7051 23.7415 62.7051 20.9531C62.7051 18.1647 60.4446 15.9043 57.6562 15.9043C54.8679 15.9043 52.6074 18.1647 52.6074 20.9531C52.6074 23.7415 54.8679 26.002 57.6562 26.002Z" fill="#BDC3C7"/>
<path d="M57.6562 26.002V15.9043C60.4404 15.9043 62.7051 18.1689 62.7051 20.9531C62.7051 23.7373 60.4404 26.002 57.6562 26.002Z" fill="#7F8C8D"/>
<path d="M65 35.3184V45.2481C65 46.7838 63.7461 48.0332 62.2039 48.0332H52.5211C51.7611 48.0332 51.1442 47.4163 51.1442 46.6562C51.1442 45.3176 50.4043 38.5349 50.4043 35.3184C50.4043 31.9027 53.2004 29.123 56.6373 29.123H58.767C62.2039 29.123 65 31.9027 65 35.3184Z" fill="#BDC3C7"/>
<path d="M65 35.3184V45.2481C65 46.7838 63.7461 48.0332 62.2039 48.0332H57.6562V29.123H58.767C62.2039 29.123 65 31.9027 65 35.3184Z" fill="#7F8C8D"/>
<path d="M25.3438 26.002C28.1321 26.002 30.3926 23.7415 30.3926 20.9531C30.3926 18.1647 28.1321 15.9043 25.3438 15.9043C22.5554 15.9043 20.2949 18.1647 20.2949 20.9531C20.2949 23.7415 22.5554 26.002 25.3438 26.002Z" fill="#BDC3C7"/>
<path d="M25.3438 26.002V15.9043C28.1279 15.9043 30.3926 18.1689 30.3926 20.9531C30.3926 23.7373 28.1279 26.002 25.3438 26.002Z" fill="#7F8C8D"/>
<path d="M32.5957 35.3184C32.5957 38.6381 31.8558 45.2568 31.8558 46.6562C31.8558 47.4163 31.2389 48.0332 30.4789 48.0332H20.6997C19.2108 48.0332 18 46.827 18 45.3436V35.3184C18 31.9027 20.7961 29.123 24.233 29.123H26.3627C29.7996 29.123 32.5957 31.9027 32.5957 35.3184Z" fill="#BDC3C7"/>
<path d="M32.5957 35.3184C32.5957 38.6381 31.8558 45.2568 31.8558 46.6562C31.8558 47.4163 31.2389 48.0332 30.4789 48.0332H25.3438V29.123H26.3627C29.7996 29.123 32.5957 31.9027 32.5957 35.3184Z" fill="#7F8C8D"/>
<path d="M41.5 26.002C45.9107 26.002 49.4863 22.4264 49.4863 18.0156C49.4863 13.6049 45.9107 10.0293 41.5 10.0293C37.0893 10.0293 33.5137 13.6049 33.5137 18.0156C33.5137 22.4264 37.0893 26.002 41.5 26.002Z" fill="#2FAD80"/>
<path d="M41.5 26.002V10.0293C45.9035 10.0293 49.4863 13.6121 49.4863 18.0156C49.4863 22.4191 45.9035 26.002 41.5 26.002Z" fill="#2E9670"/>
<path d="M53.8926 40.2323V47.756C53.8926 49.5286 52.4505 50.9707 50.6779 50.9707H32.3221C30.5496 50.9707 29.1074 49.5286 29.1074 47.756V40.2323C29.1074 34.1067 34.0911 29.123 40.2167 29.123H42.7833C48.9089 29.123 53.8926 34.1067 53.8926 40.2323Z" fill="#2FAD80"/>
<path d="M53.8926 40.2323V47.756C53.8926 49.5286 52.4504 50.9707 50.6779 50.9707H41.5V29.123H42.7833C48.9089 29.123 53.8926 34.1067 53.8926 40.2323Z" fill="#2E9670"/>
</g>
<defs>
<clipPath id="clip0">
<rect width="47" height="47" fill="white" transform="translate(18 7)"/>
</clipPath>
</defs>
</svg>
