<svg width="83" height="60" viewBox="0 0 83 60" fill="none" xmlns="http://www.w3.org/2000/svg">
<path d="M14.1753 11.1487C-5.22493 22.4762 -6.38541 60.7216 21.2088 59.9896C33.5478 59.6615 37.4407 49.9474 48.5762 45.4043C59.0307 41.1363 67.7567 46.4638 78.3096 36.7718C89.5492 23.0068 78.3096 1.18494 68.4291 0.187151C60.3815 -0.625561 51.3832 1.36534 44.3522 3.14472C30.0985 6.75397 28.5905 2.73635 14.1753 11.1487Z" fill="#EAF7F2"/>
<g clip-path="url(#clip0)">
<path d="M63.3793 28.8793H61.7586V27.2586C61.7586 26.8111 61.3958 26.4483 60.9483 26.4483C60.9483 15.7073 52.241 7 41.5 7C30.759 7 22.0517 15.7073 22.0517 26.4483C21.6042 26.4483 21.2414 26.8111 21.2414 27.2586V28.8793H19.6207C18.7256 28.8793 18 29.6049 18 30.5V40.2241C18 41.1192 18.7256 41.8448 19.6207 41.8448H21.2414V43.4655C21.2414 43.9131 21.6042 44.2759 22.0517 44.2759H26.1034C26.9985 44.2759 27.7241 43.5503 27.7241 42.6552V28.069C27.7241 27.1739 26.9985 26.4483 26.1034 26.4483H25.2931C25.2931 17.4975 32.5492 10.2414 41.5 10.2414C50.4508 10.2414 57.7069 17.4975 57.7069 26.4483H56.8966C56.0015 26.4483 55.2759 27.1739 55.2759 28.069V42.6552C55.2759 43.5503 56.0015 44.2759 56.8966 44.2759H60.9483C61.3958 44.2759 61.7586 43.9131 61.7586 43.4655V41.8448H63.3793C64.2744 41.8448 65 41.1192 65 40.2241V30.5C65 29.6049 64.2744 28.8793 63.3793 28.8793Z" fill="#95A5A5"/>
<path d="M46.6537 22.9153C44.568 20.8322 41.4334 20.2095 38.7098 21.3372C35.9863 22.465 34.2094 25.1213 34.2068 28.0691V39.414C34.2049 42.8189 36.5594 45.7721 39.8792 46.5288V50.7588H35.8275C34.9324 50.7588 34.2068 51.4844 34.2068 52.3795V53.1898C34.2068 53.6374 34.5696 54.0002 35.0171 54.0002H47.9827C48.4302 54.0002 48.793 53.6374 48.793 53.1898V52.3795C48.793 51.4844 48.0674 50.7588 47.1723 50.7588H43.1206V46.5288C46.4404 45.7721 48.7949 42.8189 48.793 39.414V28.0691C48.7913 26.1355 48.0218 24.2817 46.6537 22.9153Z" fill="#BDC3C7"/>
<path d="M27.7242 28.0689V42.6551C27.7242 43.5502 26.9986 44.2758 26.1035 44.2758H22.0518C21.6043 44.2758 21.2415 43.913 21.2415 43.4655V27.2586C21.2415 26.811 21.6043 26.4482 22.0518 26.4482H26.1035C26.9986 26.4482 27.7242 27.1738 27.7242 28.0689Z" fill="#37C08F"/>
<path d="M21.2414 28.8789V41.8444H19.6207C18.7256 41.8444 18 41.1188 18 40.2237V30.4996C18 29.6045 18.7256 28.8789 19.6207 28.8789H21.2414Z" fill="#2E9670"/>
<path d="M61.7586 27.2586V43.4655C61.7586 43.913 61.3958 44.2758 60.9483 44.2758H56.8966C56.0015 44.2758 55.2759 43.5502 55.2759 42.6551V28.0689C55.2759 27.1738 56.0015 26.4482 56.8966 26.4482H60.9483C61.3958 26.4482 61.7586 26.811 61.7586 27.2586Z" fill="#37C08F"/>
<path d="M64.9999 30.4996V40.2237C64.9999 41.1188 64.2743 41.8444 63.3792 41.8444H61.7585V28.8789H63.3792C64.2743 28.8789 64.9999 29.6045 64.9999 30.4996Z" fill="#2E9670"/>
<path d="M52.0751 20.0705C51.8341 20.0709 51.6054 19.964 51.4512 19.7788C48.9877 16.8295 45.3429 15.1248 41.5001 15.1248C37.6573 15.1248 34.0125 16.8295 31.5491 19.7788C31.3638 20.0017 31.0737 20.1089 30.788 20.0599C30.5023 20.0109 30.2644 19.8132 30.164 19.5412C30.0636 19.2693 30.1159 18.9645 30.3012 18.7416C33.0725 15.4206 37.1748 13.501 41.5001 13.501C45.8255 13.501 49.9278 15.4206 52.6991 18.7416C52.8369 18.9069 52.9032 19.1204 52.8835 19.3347C52.8637 19.5491 52.7595 19.7468 52.5938 19.8841C52.448 20.005 52.2645 20.0709 52.0751 20.0705Z" fill="#2E9670"/>
<path d="M49.8384 22.4531C49.5876 22.4525 49.3512 22.3358 49.1982 22.1371C47.357 19.7512 44.5136 18.3539 41.4999 18.3539C38.4862 18.3539 35.6428 19.7512 33.8016 22.1371C33.5196 22.4592 33.0356 22.5063 32.6967 22.2446C32.3579 21.983 32.281 21.5028 32.5213 21.1484C34.6695 18.367 37.9855 16.7383 41.4999 16.7383C45.0143 16.7383 48.3303 18.367 50.4785 21.1484C50.7506 21.5022 50.6854 22.0095 50.3327 22.2829C50.1912 22.3927 50.0174 22.4525 49.8384 22.4531Z" fill="#2FAD80"/>
<path d="M48.793 38.6035V39.4139C48.7949 42.8188 46.4404 45.772 43.1206 46.5287C42.0532 46.7664 40.9466 46.7664 39.8792 46.5287C36.5594 45.772 34.2049 42.8188 34.2068 39.4139L34.2068 38.6035H48.793Z" fill="#37C08F"/>
<path d="M48.793 52.3795V53.1898C48.793 53.6374 48.4302 54.0002 47.9826 54.0002H35.0171C34.5696 54.0002 34.2068 53.6374 34.2068 53.1898V52.3795C34.2068 51.4844 34.9324 50.7588 35.8275 50.7588H47.1723C48.0674 50.7588 48.793 51.4844 48.793 52.3795Z" fill="#2E9670"/>
<path d="M39.8792 28.8787C39.8792 29.3262 39.5164 29.689 39.0689 29.689H34.2068V28.0684H39.0689C39.5164 28.0684 39.8792 28.4312 39.8792 28.8787Z" fill="#7F8C8D"/>
<path d="M39.8792 32.1199C39.8792 32.5675 39.5164 32.9303 39.0689 32.9303H34.2068V31.3096H39.0689C39.5164 31.3096 39.8792 31.6724 39.8792 32.1199Z" fill="#7F8C8D"/>
<path d="M39.8792 35.3611C39.8792 35.8087 39.5164 36.1715 39.0689 36.1715H34.2068V34.5508H39.0689C39.5164 34.5508 39.8792 34.9136 39.8792 35.3611Z" fill="#7F8C8D"/>
<path d="M48.793 28.0684V29.689H43.931C43.4834 29.689 43.1206 29.3262 43.1206 28.8787C43.1206 28.4312 43.4834 28.0684 43.931 28.0684H48.793Z" fill="#7F8C8D"/>
<path d="M48.793 31.3096V32.9303H43.931C43.4834 32.9303 43.1206 32.5675 43.1206 32.1199C43.1206 31.6724 43.4834 31.3096 43.931 31.3096H48.793Z" fill="#7F8C8D"/>
<path d="M48.793 34.5508V36.1715H43.931C43.4834 36.1715 43.1206 35.8087 43.1206 35.3611C43.1206 34.9136 43.4834 34.5508 43.931 34.5508H48.793Z" fill="#7F8C8D"/>
</g>
<defs>
<clipPath id="clip0">
<rect width="47" height="47" fill="white" transform="translate(18 7)"/>
</clipPath>
</defs>
</svg>
