<svg width="83" height="60" viewBox="0 0 83 60" fill="none" xmlns="http://www.w3.org/2000/svg">
<path d="M0.298919 13.5235C-3.88773 44.5044 36.7658 74.5595 68.2204 52.3058C82.4214 42.2597 92.609 10.1351 68.5797 5.43005C54.7992 2.73372 39.9867 13.519 26.8509 9.27457C20.5365 7.23659 17.3029 -0.782747 9.96413 0.0621037C3.07388 0.868756 0.997118 8.36006 0.298919 13.5235Z" fill="#EAF7F2"/>
<path d="M49.4855 53H33.512C30.8029 53 28.2128 51.841 26.4058 49.8203C24.6163 47.8191 23.7606 45.1485 24.058 42.4932C24.5074 38.4815 25.8213 34.5374 27.8578 31.0874C29.9796 27.4928 32.7806 24.5202 36.1828 22.252C36.4292 22.0877 36.7187 22 37.0148 22H45.9826C46.2787 22 46.5682 22.0877 46.8146 22.252C50.2168 24.5202 53.0177 27.4928 55.1395 31.0874C57.176 34.5374 58.4899 38.4814 58.9393 42.4932C59.2368 45.1486 58.381 47.8192 56.5915 49.8203C54.7846 51.841 52.1946 53 49.4855 53Z" fill="#2FAD80"/>
<path d="M58.9383 42.4932C58.4889 38.4815 57.175 34.5374 55.1385 31.0874C53.0167 27.4929 50.2157 24.5202 46.8136 22.252C46.5672 22.0877 46.2777 22 45.9816 22H41.4976V52.9999H49.4843C52.1934 52.9999 54.7835 51.8409 56.5905 49.8202C58.38 47.8191 59.2357 45.1486 58.9383 42.4932Z" fill="#2E9670"/>
<path d="M43.3637 36.2398C43.1321 36.1579 42.896 36.0728 42.6598 35.985V31.7549C43.0938 31.9045 43.3184 32.1222 43.3481 32.1525C43.8026 32.6661 44.5872 32.7175 45.1052 32.2663C45.6257 31.8128 45.68 31.0232 45.2264 30.5027C44.7993 30.0126 43.9139 29.3976 42.6598 29.188V28.499C42.6598 27.8087 42.1002 27.249 41.4098 27.249C40.7194 27.249 40.1598 27.8087 40.1598 28.499V29.3266C40.0722 29.3494 39.9839 29.374 39.8946 29.4009C38.3835 29.8561 37.2549 31.1465 36.9492 32.7685C36.6689 34.2558 37.1512 35.6945 38.2075 36.523C38.7132 36.9197 39.3306 37.2833 40.1597 37.6619V43.1533C39.5549 43.0729 39.1024 42.875 38.3938 42.4114C37.8161 42.0333 37.0414 42.1955 36.6634 42.7731C36.2854 43.3507 36.4474 44.1254 37.0251 44.5035C38.2508 45.3053 39.1126 45.5816 40.1597 45.6681V46.499C40.1597 47.1893 40.7193 47.749 41.4097 47.749C42.1001 47.749 42.6597 47.1893 42.6597 46.499V45.5513C43.4811 45.3503 44.2281 44.9524 44.8606 44.3712C45.7065 43.5941 46.2774 42.541 46.4682 41.4063C46.8607 39.0731 45.642 37.0452 43.3637 36.2398ZM39.7505 34.5559C39.4361 34.3093 39.3008 33.7894 39.406 33.2315C39.4854 32.8104 39.7232 32.3216 40.1598 32.0162V34.8394C40.0117 34.7468 39.8736 34.6525 39.7505 34.5559ZM44.003 40.9918C43.8813 41.7157 43.4262 42.4793 42.6598 42.8928V38.6459C44.1255 39.2335 44.09 40.4747 44.003 40.9918Z" fill="#BDC3C7"/>
<path d="M43.3639 36.2392C43.1323 36.1573 42.8962 36.0722 42.66 35.9844V31.7543C43.094 31.9039 43.3186 32.1216 43.3483 32.1519C43.8028 32.6655 44.5874 32.7169 45.1054 32.2657C45.6259 31.8122 45.6802 31.0226 45.2266 30.5021C44.7995 30.012 43.9141 29.397 42.66 29.1874V28.4984C42.66 27.838 42.1475 27.2986 41.4988 27.2529V47.7439C42.1476 47.6982 42.66 47.1587 42.66 46.4984V45.5507C43.4814 45.3497 44.2284 44.9518 44.8609 44.3706C45.7068 43.5935 46.2777 42.5404 46.4685 41.4057C46.8609 39.0725 45.6422 37.0446 43.3639 36.2392ZM44.0032 40.9912C43.8815 41.7151 43.4264 42.4787 42.66 42.8922V38.6453C44.1257 39.2329 44.0902 40.4741 44.0032 40.9912Z" fill="#BDC3C7"/>
<path d="M45.983 19H37.015C36.7197 19 36.431 18.9129 36.185 18.7494L35.8319 18.5148C32.8057 16.5045 30.999 13.1353 30.999 9.50222C30.999 8.94902 31.3035 8.43962 31.7912 8.17863C32.2789 7.91763 32.8707 7.94503 33.331 8.25193C35.5591 9.73732 38.4387 9.73732 40.6668 8.25193C41.1707 7.91603 41.8271 7.91603 42.331 8.25193C44.5591 9.73732 47.4387 9.73732 49.6668 8.25193C50.1272 7.94503 50.7189 7.91653 51.2066 8.17743C51.6943 8.43842 51.9988 8.94672 51.9988 9.50002C51.9988 13.1354 50.1921 16.5046 47.1659 18.5148L46.8128 18.7494C46.567 18.9129 46.2783 19 45.983 19Z" fill="#2FAD80"/>
<path d="M51.2065 8.1775C50.7188 7.9166 50.127 7.9451 49.6667 8.252C47.4386 9.7374 44.559 9.7374 42.3309 8.252C42.0789 8.084 41.7889 8 41.4988 8V19H45.9828C46.2781 19 46.5668 18.9129 46.8128 18.7494L47.1659 18.5148C50.192 16.5047 51.9987 13.1355 51.9987 9.5001C51.9987 8.9469 51.6942 8.4386 51.2065 8.1775Z" fill="#2E9670"/>
<path d="M47.999 23.5H34.999C33.3421 23.5 31.999 22.1569 31.999 20.5C31.999 18.8431 33.3421 17.5 34.999 17.5H47.999C49.6559 17.5 50.999 18.8431 50.999 20.5C50.999 22.1569 49.6559 23.5 47.999 23.5Z" fill="#BDC3C7"/>
<path d="M47.9988 17.5H41.4988V23.5H47.9988C49.6557 23.5 50.9988 22.1569 50.9988 20.5C50.9988 18.8431 49.6557 17.5 47.9988 17.5Z" fill="#BDC3C7"/>
</svg>
